<?xml version="1.0" encoding="utf-8"?>
<!-- Generator: Adobe Illustrator 16.0.0, SVG Export Plug-In . SVG Version: 6.00 Build 0)  -->
<!DOCTYPE svg PUBLIC "-//W3C//DTD SVG 1.1//EN" "http://www.w3.org/Graphics/SVG/1.1/DTD/svg11.dtd">
<svg version="1.1" id="Layer_1" xmlns="http://www.w3.org/2000/svg" xmlns:xlink="http://www.w3.org/1999/xlink" x="0px" y="0px"
	 width="360px" height="360px" viewBox="0 0 360 360" enable-background="new 0 0 360 360" xml:space="preserve">
<g>
	<path fill="#FFFFFF" d="M82,23.615v133.289c0.159-0.071,0.314-0.123,0.448-0.136c3.268-0.318,6.363,0.19,9.467,1.546
		c11.732,5.128,23.883,8.963,36.699,10.108c8.064,0.723,16.168,1.304,24.258,1.328c38.866,0.124,77.733,0.038,116.601,0.023
		c1.856,0,3.735,0.174,5.573-0.023c10.608-1.135,20.479,2.092,30.414,4.999c2.354,0.69,4.804,1.141,7.062,2.06
		c1.131,0.461,2.545,1.613,2.74,2.66c0.303,1.602-1.281,2.401-2.781,2.821c-7.853,2.196-15.692,4.442-23.565,6.567
		c-1.447,0.394-3.026,0.416-4.545,0.416c-44.713,0.028-89.429-0.01-134.14,0.065c-16.145,0.027-32.109,1.533-47.425,7.142
		c-4.3,1.574-8.606,3.16-12.79,5.013c-2.66,1.176-5.332,0.766-8.014,0.753v133.141L352,179.5L82,23.615z"/>
</g>
</svg>
